# xmcd
#
# Track frame offsets:
#	150
#	17610
#	31333
#
# Disc length: 651 seconds
#
# Revision: 1
# Processed by: cddbd v1.5.2PL0 Copyright (c) Steve Scherf et al.
# Submitted via: audiograbber 1.83.01
#
DISCID=17028903
DTITLE=Wynonna - Tell me why
DYEAR=1993
DGENRE=Country
TTITLE0=Tell me why
TTITLE1=A little bit of love (goes a long, long way)
TTITLE2=I saw the light
EXTD=
EXTT0=
EXTT1=
EXTT2=
PLAYORDER=
